<svg width="256" height="256" viewBox="-40 -20 800 900" fill="white" xmlns="http://www.w3.org/2000/svg">
<path fill-rule="evenodd" clip-rule="evenodd" d="M337.746 201.289C337.751 201.283 337.755 201.277 337.76 201.27C374.05 219.89 413.76 226.27 451.76 226.16C473.84 246.44 492.21 270.26 509.47 294.72C516.627 304.937 523.082 315.628 528.79 326.72C541.989 352.136 551.696 379.028 561.518 406.237C564.398 414.217 567.289 422.225 570.28 430.23C571.217 433.656 572.196 437.084 573.217 440.514L573.27 440.5C588.44 492.53 610.59 548.11 640.27 594L640.241 594.012C650.058 609.087 661.055 623.361 673.13 636.7C675.506 639.27 677.936 641.816 680.369 644.365L680.37 644.366L680.371 644.367L680.374 644.37C691.742 656.28 703.19 668.274 709.68 683.28C717.76 701.98 717.14 723.49 712.28 743.28C689.35 836.56 599.52 861.07 513.67 863.33L513.711 863.223C481.522 863.864 449.556 861.465 421.21 858.56C421.21 858.56 284.5 844.41 168.62 759.69L164.88 756.91C164.88 756.91 164.88 756.91 164.881 756.909C151.355 746.83 138.451 735.941 126.24 724.3C93.76 693.3 64.86 658.14 42.76 619.54C42.9078 619.392 43.0553 619.243 43.2026 619.095C40.587 614.388 38.0795 609.634 35.68 604.83C14.3 562.04 1.27 515.46 0.679999 465.95C-0.325631 382.873 28.0953 297.795 82.1176 236.113C82.0984 236.062 82.0792 236.011 82.06 235.96C111.31 203.92 147.87 178.75 191.15 164.42C218.283 155.354 246.768 151.001 275.37 151.55C292.775 171.987 313.954 188.874 337.746 201.289ZM271.153 744.85C290.711 737.711 309.24 728.11 326.518 716.279C309.131 728.03 290.575 737.637 271.153 744.85Z" fill=""/>
<path fill-rule="evenodd" clip-rule="evenodd" d="M621.498 133.628C621.512 133.628 621.526 133.628 621.54 133.627L622.72 132.867C470.3 -127.133 271 77.5671 271 77.5671L271.285 78.0685C271.273 78.0714 271.262 78.0742 271.25 78.0771C385.856 279.01 603.664 145.087 621.498 133.628Z" fill=""/>
</svg>
